<mxfile host="app.diagrams.net" modified="2024-01-09T11:30:43.948Z" agent="Mozilla/5.0 (Windows NT 10.0; Win64; x64) AppleWebKit/537.36 (KHTML, like Gecko) Chrome/120.0.0.0 Safari/537.36" etag="TuteGpKM5h2Zbaprzjgt" version="22.1.17" type="gitlab">
  <diagram name="Pagina-1" id="hC3suqmQke7wl9KMhECB">
    <mxGraphModel dx="1050" dy="557" grid="1" gridSize="10" guides="1" tooltips="1" connect="1" arrows="1" fold="1" page="1" pageScale="1" pageWidth="827" pageHeight="1169" math="0" shadow="0">
      <root>
        <mxCell id="0" />
        <mxCell id="1" parent="0" />
        <mxCell id="HLW4yrqOA1MUcVgEDOPn-4" value="" style="edgeStyle=orthogonalEdgeStyle;rounded=0;orthogonalLoop=1;jettySize=auto;html=1;" edge="1" parent="1" source="HLW4yrqOA1MUcVgEDOPn-2" target="HLW4yrqOA1MUcVgEDOPn-3">
          <mxGeometry relative="1" as="geometry" />
        </mxCell>
        <mxCell id="HLW4yrqOA1MUcVgEDOPn-2" value="&lt;font style=&quot;font-size: 22px;&quot;&gt;Kickoff&lt;/font&gt;" style="rounded=1;whiteSpace=wrap;html=1;" vertex="1" parent="1">
          <mxGeometry x="340" y="80" width="160" height="80" as="geometry" />
        </mxCell>
        <mxCell id="HLW4yrqOA1MUcVgEDOPn-3" value="" style="whiteSpace=wrap;html=1;rounded=1;" vertex="1" parent="1">
          <mxGeometry x="360" y="250" width="120" height="80" as="geometry" />
        </mxCell>
      </root>
    </mxGraphModel>
  </diagram>
</mxfile>
